<svg xmlns="http://www.w3.org/2000/svg" viewBox="0 0 62.89 90.69"><title>Asset 1</title><g id="Layer_2" data-name="Layer 2"><g id="Layer_1-2" data-name="Layer 1"><rect x="18.13" y="44.25" width="22.51" height="8.44" rx="4.22" ry="4.22" transform="translate(-23.45 69) rotate(-80)"/><path d="M39.18,50.45h0a5.15,5.15,0,0,0,1,3.92,16.65,16.65,0,1,1-22.87-4A5.16,5.16,0,0,0,19.51,47h0a5,5,0,0,0-7.71-5,26.62,26.62,0,1,0,36.31,6.35A5,5,0,0,0,39.18,50.45Z"/><path d="M6.36,17.74c4.3-1,8.82,2.85,10.09,8.52s-1.19,11-5.5,12S2.13,35.42.86,29.75,2.05,18.7,6.36,17.74ZM9.61,35.58a2.94,2.94,0,0,0,.72-.08,4.48,4.48,0,0,0,2.88-2.65,9.57,9.57,0,0,0,.47-6c-.81-3.62-3.43-6.46-6-6.46A3.55,3.55,0,0,0,7,20.5c-2.73.61-4.26,4.56-3.35,8.63.81,3.62,3.43,6.45,6,6.45Z"/><path d="M58.7,26.3c4,1.79,5.39,7.55,3,12.86s-7.53,8.16-11.57,6.37-5.39-7.54-3-12.85S54.67,24.51,58.7,26.3Zm-6,16.93c2.42,0,5.06-2.15,6.42-5.22,1.69-3.81,1-8-1.59-9.11a3.33,3.33,0,0,0-1.41-.3c-2.41,0-5,2.15-6.42,5.23-1.69,3.81-1,8,1.59,9.11a3.36,3.36,0,0,0,1.41.29Z"/><path d="M46.78,6.27c4.37,1.36,6.47,7.13,4.68,12.88s-6.78,9.33-11.15,8S33.85,20,35.63,14.24,42.41,4.92,46.78,6.27ZM42.22,24.58c2.66,0,5.41-2.64,6.53-6.27,1.3-4.18,0-8.45-2.81-9.33a3.85,3.85,0,0,0-1.07-.16c-2.66,0-5.41,2.64-6.53,6.26a10.08,10.08,0,0,0,0,6.29,4.78,4.78,0,0,0,2.82,3.05,3.85,3.85,0,0,0,1.07.16Z"/><path d="M26.11.05C30.65.61,33.74,5.91,33,11.89s-5,10.38-9.55,9.82-7.63-5.86-6.9-11.84S21.57-.51,26.11.05ZM24.23,18.93c2.78,0,5.46-3.31,6-7.38a10.14,10.14,0,0,0-1.1-6.19,4.77,4.77,0,0,0-3.32-2.5,3.25,3.25,0,0,0-.44,0c-2.79,0-5.46,3.32-6,7.38-.54,4.35,1.49,8.33,4.42,8.69a3.25,3.25,0,0,0,.44,0Z"/></g></g></svg>