<?xml version="1.0" standalone="no"?><!DOCTYPE svg PUBLIC "-//W3C//DTD SVG 1.1//EN"
        "http://www.w3.org/Graphics/SVG/1.1/DTD/svg11.dtd">
<svg class="icon" height="9" width="9" viewBox="0 0 1024 1024" version="1.1" xmlns="http://www.w3.org/2000/svg">
    <path d="M398.222222 739.555556h227.555556v56.888888H398.222222v-56.888888z m0-341.333334h56.888889v56.888889H398.222222V398.222222z m56.888889 0h113.777778v341.333334H455.111111V398.222222z"
          fill="#FFFFFF" fill-opacity="0.7"/>
    <path d="M512 910.222222c221.866667 0 398.222222-176.355556 398.222222-398.222222s-176.355556-398.222222-398.222222-398.222222-398.222222 176.355556-398.222222 398.222222 176.355556 398.222222 398.222222 398.222222zM512 56.888889c250.311111 0 455.111111 204.8 455.111111 455.111111s-204.8 455.111111-455.111111 455.111111-455.111111-204.8-455.111111-455.111111 204.8-455.111111 455.111111-455.111111z"
          fill="#FFFFFF" fill-opacity="0.7"/>
    <path d="M512 284.444444m-56.888889 0a56.888889 56.888889 0 1 0 113.777778 0 56.888889 56.888889 0 1 0-113.777778 0Z"
          fill="#FFFFFF" fill-opacity="0.7"/>
</svg>