<?xml version="1.0" standalone="no"?><!DOCTYPE svg PUBLIC "-//W3C//DTD SVG 1.1//EN"
        "http://www.w3.org/Graphics/SVG/1.1/DTD/svg11.dtd">
<svg class="icon" height="9" width="9" viewBox="0 0 1024 1024" version="1.1" xmlns="http://www.w3.org/2000/svg">
    <path fill="#ffd200" d="M939.568 161.76c-2.448-0.24-246.896-25.136-417.152-147.92-11.024-7.952-25.952-7.952-36.992 0C315.136 136.624 70.72 161.536 68.288 161.76 52.16 163.312 39.84 176.768 39.84 192.864c0 6.704 0.624 166.496 55.424 345.872 32.48 106.352 77.408 197.344 133.52 270.448 71.264 92.864 160.608 156.864 265.536 190.24 3.12 0.992 6.368 1.488 9.6 1.488 3.248 0 6.48-0.496 9.584-1.488 104.928-33.36 194.272-97.36 265.536-190.224 56.112-73.12 101.024-164.096 133.52-270.448C967.36 359.376 968 199.584 968 192.864 968 176.784 955.696 163.328 939.568 161.76zM707.744 389.52 512.144 644.224c-5.248 6.832-13.088 11.216-21.696 12.128-1.12 0.112-2.224 0.176-3.344 0.176-7.456 0-14.736-2.64-20.448-7.504l-113.808-96.624c-13.216-11.216-14.752-30.928-3.472-44.048 11.296-13.12 31.152-14.656 44.368-3.44l88.512 75.136 175.424-228.432c10.528-13.728 30.288-16.368 44.112-5.904S718.272 375.792 707.744 389.52z"/>
</svg>